<svg width="44" height="45" viewBox="0 0 44 45" fill="none" xmlns="http://www.w3.org/2000/svg">
<path d="M44 22.0867C44 9.93641 34.1503 0.0866699 22 0.0866699C9.84974 0.0866699 0 9.93641 0 22.0867C0 34.2369 9.84974 44.0867 22 44.0867C34.1503 44.0867 44 34.2369 44 22.0867Z" fill="#7289DA"/>
<path d="M20.009 21.6907C19.382 21.6907 18.887 22.2407 18.887 22.9117C18.887 23.5827 19.393 24.1327 20.009 24.1327C20.636 24.1327 21.131 23.5827 21.131 22.9117C21.142 22.2407 20.636 21.6907 20.009 21.6907ZM24.024 21.6907C23.397 21.6907 22.902 22.2407 22.902 22.9117C22.902 23.5827 23.408 24.1327 24.024 24.1327C24.651 24.1327 25.146 23.5827 25.146 22.9117C25.146 22.2407 24.651 21.6907 24.024 21.6907Z" fill="white"/>
<path d="M29.37 12.4617H14.63C13.387 12.4617 12.375 13.4737 12.375 14.7277V29.5997C12.375 30.8537 13.387 31.8657 14.63 31.8657H27.104L26.521 29.8307L27.929 31.1397L29.26 32.3717L31.625 34.4617V14.7277C31.625 13.4737 30.613 12.4617 29.37 12.4617ZM25.124 26.8277C25.124 26.8277 24.728 26.3547 24.398 25.9367C25.839 25.5297 26.389 24.6277 26.389 24.6277C25.938 24.9247 25.509 25.1337 25.124 25.2767C24.574 25.5077 24.046 25.6617 23.529 25.7497C22.473 25.9477 21.505 25.8927 20.68 25.7387C20.053 25.6177 19.514 25.4417 19.063 25.2657C18.81 25.1667 18.535 25.0457 18.26 24.8917C18.227 24.8697 18.194 24.8587 18.161 24.8367C18.139 24.8257 18.128 24.8147 18.117 24.8037C17.919 24.6937 17.809 24.6167 17.809 24.6167C17.809 24.6167 18.337 25.4967 19.734 25.9147C19.404 26.3327 18.997 26.8277 18.997 26.8277C16.566 26.7507 15.642 25.1557 15.642 25.1557C15.642 21.6137 17.226 18.7427 17.226 18.7427C18.81 17.5547 20.317 17.5877 20.317 17.5877L20.427 17.7197C18.447 18.2917 17.534 19.1607 17.534 19.1607C17.534 19.1607 17.776 19.0287 18.183 18.8417C19.36 18.3247 20.295 18.1817 20.68 18.1487C20.746 18.1377 20.801 18.1267 20.867 18.1267C21.538 18.0387 22.297 18.0167 23.089 18.1047C24.134 18.2257 25.256 18.5337 26.4 19.1607C26.4 19.1607 25.531 18.3357 23.661 17.7637L23.815 17.5877C23.815 17.5877 25.322 17.5547 26.906 18.7427C26.906 18.7427 28.49 21.6137 28.49 25.1557C28.49 25.1557 27.555 26.7507 25.124 26.8277Z" fill="white"/>
</svg>
