<svg width="154" height="52" viewBox="0 0 154 52" fill="none" xmlns="http://www.w3.org/2000/svg">
<g clip-path="url(#clip0_204_2164)">
<path d="M18.9137 0.0908203H20.2794C25.0205 0.19363 29.6844 2.09561 33.0341 5.46262C31.7973 6.72204 30.5347 7.93005 29.3236 9.18947C27.4426 7.49311 25.1751 6.18229 22.7015 5.71965C19.0426 4.94857 15.1002 5.64254 12.0339 7.72443C8.68424 9.90914 6.41674 13.6103 5.92716 17.5685C5.38606 21.4752 6.49404 25.5876 9.04497 28.6205C11.4928 31.5763 15.2291 33.4268 19.0941 33.5553C22.7015 33.761 26.4635 32.6558 29.0917 30.1369C31.1531 28.3635 32.1065 25.6647 32.4157 23.0431C28.1383 23.0431 23.861 23.0688 19.5837 23.0431V17.7484H37.5948C38.5224 23.4286 37.1826 29.8285 32.8537 33.8895C29.9678 36.7681 25.9739 38.4645 21.9027 38.7986C17.9604 39.1842 13.8892 38.4388 10.3849 36.5368C6.18483 34.3007 2.83512 30.5225 1.18603 26.0759C-0.359988 21.9893 -0.385755 17.3628 1.0572 13.2504C2.37132 9.4979 4.89648 6.18229 8.14313 3.86907C11.2609 1.58156 15.0487 0.322142 18.9137 0.0908203Z" fill="#3780FF"/>
<path d="M122.24 1.42773H127.754V38.1308C125.924 38.1308 124.069 38.1565 122.24 38.105C122.265 25.8964 122.24 13.6621 122.24 1.42773Z" fill="#38B137"/>
<path d="M49.8598 14.1504C53.2611 13.5078 56.9458 14.2275 59.7544 16.258C62.3053 18.0571 64.0832 20.8844 64.6243 23.9687C65.3201 27.5413 64.444 31.4481 62.1249 34.2753C59.6255 37.4367 55.5286 39.1331 51.5347 38.8761C47.8758 38.6704 44.3199 36.8456 42.1555 33.8641C39.7076 30.5742 39.115 26.0506 40.4549 22.1952C41.7948 18.0571 45.5825 14.8957 49.8598 14.1504ZM50.6328 19.0338C49.2414 19.3937 47.9531 20.1904 47.0255 21.3213C44.5261 24.3028 44.6807 29.1606 47.4377 31.9364C49.0095 33.53 51.3801 34.2753 53.5703 33.8384C55.6059 33.4786 57.3838 32.1163 58.363 30.3172C60.0636 27.2586 59.574 23.0434 56.9715 20.6531C55.2967 19.1109 52.8488 18.4684 50.6328 19.0338Z" fill="#FA3913"/>
<path d="M77.1729 14.1503C81.0637 13.4049 85.3153 14.4844 88.227 17.2089C92.9681 21.4498 93.4834 29.3918 89.438 34.2753C86.9901 37.3596 83.022 39.0559 79.1054 38.876C75.3692 38.7732 71.6845 36.9226 69.4686 33.864C66.9692 30.497 66.4281 25.8706 67.8452 21.9381C69.2624 17.9286 72.9729 14.87 77.1729 14.1503ZM77.9459 19.0338C76.5545 19.3936 75.2661 20.1904 74.3385 21.2956C71.8649 24.2256 71.968 29.0063 74.622 31.8078C76.1938 33.4785 78.6416 34.301 80.9091 33.8383C82.919 33.4528 84.7226 32.1163 85.7018 30.3171C87.3766 27.2328 86.8871 23.0176 84.2588 20.6273C82.584 19.0852 80.1361 18.4683 77.9459 19.0338Z" fill="#FCBD06"/>
<path d="M100.337 15.6411C103.301 13.7905 107.243 13.2765 110.438 14.87C111.443 15.307 112.268 16.0523 113.066 16.7977C113.092 16.1038 113.066 15.3841 113.092 14.6644C114.819 14.6901 116.545 14.6644 118.297 14.6901V37.3596C118.271 40.7781 117.395 44.4021 114.922 46.8952C112.216 49.6454 108.068 50.4936 104.331 49.9281C100.337 49.3369 96.8589 46.4326 95.3129 42.7571C96.8589 42.0118 98.4822 41.4206 100.08 40.7267C100.982 42.8342 102.811 44.6334 105.104 45.0447C107.398 45.4559 110.052 44.8904 111.546 42.9885C113.144 41.0351 113.144 38.362 113.066 35.9717C111.881 37.1283 110.515 38.1564 108.866 38.5419C105.285 39.5443 101.342 38.3106 98.5853 35.8946C95.8025 33.4786 94.1534 29.7517 94.308 26.0506C94.3853 21.8611 96.7558 17.8258 100.337 15.6411ZM105.671 18.931C104.099 19.188 102.631 20.0619 101.626 21.2699C99.2037 24.1486 99.2037 28.7493 101.652 31.5766C103.043 33.2473 105.285 34.1725 107.449 33.9412C109.485 33.7356 111.366 32.4505 112.371 30.677C114.071 27.6698 113.788 23.5831 111.495 20.9615C110.077 19.3423 107.81 18.5455 105.671 18.931Z" fill="#3780FF"/>
<path d="M134.376 16.9519C137.468 14.0732 142.235 13.0965 146.203 14.6129C149.965 16.0266 152.361 19.5992 153.572 23.2746C147.981 25.5879 142.415 27.8754 136.824 30.1886C137.597 31.6536 138.782 32.9902 140.379 33.5299C142.621 34.3267 145.301 34.044 147.182 32.5532C147.929 31.9878 148.522 31.2424 149.089 30.5227C150.506 31.4737 151.923 32.399 153.34 33.35C151.33 36.3572 147.955 38.4648 144.322 38.7989C140.302 39.2872 136.025 37.7451 133.422 34.6094C129.145 29.6745 129.557 21.3984 134.376 16.9519ZM137.133 21.7068C136.257 22.9662 135.896 24.5084 135.922 26.0248C139.658 24.4827 143.394 22.9405 147.13 21.3727C146.512 19.9333 145.017 19.0595 143.497 18.8281C141.049 18.3912 138.498 19.702 137.133 21.7068Z" fill="#FA3913"/>
</g>
<defs>
<clipPath id="clip0_204_2164">
<rect width="154.001" height="51" fill="white" transform="translate(0 0.0866699)"/>
</clipPath>
</defs>
</svg>
