<svg width="154" height="41" viewBox="0 0 154 41" fill="none" xmlns="http://www.w3.org/2000/svg">
<g clip-path="url(#clip0_204_2166)">
<path fill-rule="evenodd" clip-rule="evenodd" d="M152.606 39.0667V11.2667H149.111C148.995 11.3467 149.003 11.3867 148.949 11.5367C147.778 14.4967 146.439 17.5667 145.253 20.5367C144.621 22.1167 143.975 23.6167 143.343 25.1867L141.919 28.6567C141.765 29.0267 141.58 29.4467 141.449 29.8167C141.341 29.6867 141.257 29.4167 141.18 29.2267C141.103 29.0167 141.018 28.8567 140.941 28.6567L139.516 25.1767C138.9 23.6067 138.238 22.1167 137.622 20.5567C136.575 17.8967 135.374 15.1167 134.288 12.4367C134.142 12.0767 133.934 11.6367 133.818 11.2667L130.261 11.2867V39.0667H133.618L133.626 20.3467L136.552 27.1867C137.476 29.4467 138.515 31.7667 139.478 34.0367C140.009 35.2967 140.895 37.4767 141.426 38.5967C141.642 38.1967 142.181 36.8567 142.412 36.3367L145.322 29.5167C146.277 27.2167 147.286 24.9567 148.24 22.6567L148.964 20.9567C149.003 20.8567 149.157 20.4467 149.234 20.3967V39.0667H152.606ZM115.6 14.8367C118.634 14.4267 121.745 16.7867 123.108 20.2767C123.577 21.4667 123.893 22.7067 123.978 24.2567C124.293 30.1367 120.898 34.6867 116.778 35.1567C115.585 35.2967 114.384 35.0167 113.398 34.5167C111.658 33.6467 110.072 31.8767 109.248 29.7167C107.869 26.0867 108.085 22.0567 109.925 18.8867C110.064 18.6367 110.21 18.4367 110.356 18.1967C110.472 18.0167 110.703 17.7067 110.849 17.5367C111.003 17.3467 111.188 17.1467 111.373 16.9667C112.62 15.6967 113.914 15.0667 115.6 14.8367ZM105.005 26.0067C105.29 30.4767 106.915 33.7467 108.662 35.7867C110.587 38.0167 113.329 39.8267 116.978 39.5267C118.657 39.3867 120.028 38.7567 121.337 37.9167C122.669 37.0567 123.677 35.8767 124.486 34.7367C126.126 32.4167 127.628 28.4867 127.343 23.9867C126.958 17.9867 124.016 13.2767 120.228 11.4067C117.171 9.89667 113.929 10.0967 111.011 12.0567C110.364 12.4867 109.817 12.9667 109.294 13.4867C108.709 14.0767 108.324 14.5867 107.854 15.2267C106.237 17.4767 104.728 21.5667 105.005 26.0067ZM62.2315 14.8267C63.5251 14.7367 65.2884 14.8167 66.4973 15.1167C70.4166 16.0967 72.3801 19.2367 72.3801 25.0867C72.3801 30.8867 70.3627 34.1167 66.4819 35.0367C65.3808 35.2967 63.3172 35.4467 62.2161 35.3067L62.2315 14.8267ZM63.887 39.5367C67.1364 39.5367 70.2857 38.5067 72.6727 35.9467C73.7045 34.8367 74.5284 33.1867 75.0443 31.5267C75.6295 29.6867 75.9067 27.4467 75.9144 25.1867C75.9221 19.8667 74.6362 15.4367 71.1327 12.8067C69.6389 11.6867 67.66 10.9867 65.6657 10.7467C64.3182 10.5867 60.1679 10.5667 58.7203 10.6167V39.5467L63.887 39.5367ZM102.656 17.6767C102.364 17.5467 100.616 14.8467 97.1895 14.8467C92.9237 14.8467 89.3817 19.4067 89.3817 24.8967V25.1267C89.3817 33.0367 96.3733 37.9767 101.548 33.4267L102.61 32.3467L104.982 35.3967C104.528 36.1067 103.226 37.2467 102.618 37.6967C99.6227 39.9367 95.6418 40.1067 92.6234 38.2767C90.6214 37.0667 89.1738 35.4267 88.1035 33.4567C87.0255 31.4767 86.0245 28.5567 86.0245 25.4167V24.5867C86.0245 21.4967 87.0409 18.5267 88.0958 16.5867C91.6378 10.0667 98.6987 8.43667 103.858 13.3767C104.073 13.5867 104.866 14.4067 104.966 14.6367C104.866 14.8367 104.558 15.2067 104.412 15.4067C104.027 15.9067 102.911 17.2867 102.656 17.6767ZM45.9922 39.5267C48.3253 39.6667 51.0434 39.0967 52.7066 37.7867C53.5767 37.0967 54.2158 36.3067 54.7394 35.1967C56.0484 32.4267 55.8636 29.4467 55.8636 26.2467V10.6167L52.2292 10.6267C52.183 13.3367 52.2292 16.1167 52.2292 18.8367C52.2292 21.5667 52.2292 24.2967 52.2292 27.0367C52.2292 28.3667 52.2446 29.7167 52.106 30.9867C51.9597 32.3367 51.6594 33.0467 51.0665 33.7167C49.873 35.0767 47.948 35.2867 45.9922 35.3367V39.5267ZM78.8635 36.1967C79.0175 37.5867 80.0185 38.7867 81.3198 38.5567C82.3901 38.3667 83.3064 37.0467 83.1293 35.3767C82.9753 33.9767 81.9666 32.7767 80.6884 33.0167C79.6258 33.2167 78.6787 34.5167 78.8635 36.1967Z" fill="#D42927"/>
<path fill-rule="evenodd" clip-rule="evenodd" d="M20.7284 34.7968C20.9132 34.1668 21.1057 33.5468 21.2905 32.9168C19.1268 34.3068 18.4723 33.1368 18.2413 31.2368C17.7793 33.6568 18.9497 35.1568 20.7284 34.7968Z" fill="url(#paint0_linear_204_2166)"/>
<path fill-rule="evenodd" clip-rule="evenodd" d="M38.5231 2.87667C33.6336 -0.673327 23.8161 0.816673 17.5714 3.96667C14.3913 5.46667 11.6732 7.35667 9.70969 9.86667C7.99259 12.1067 7.98489 14.5967 9.54799 17.2967C12.1121 21.2067 16.8784 25.1567 23.3387 26.8067C23.2771 27.1467 23.2078 27.4867 23.1462 27.8267C21.2982 31.8967 19.4579 35.9667 17.6099 40.0467C17.8871 40.0467 18.1643 40.0467 18.4415 40.0467C19.9122 37.6567 21.2058 35.9667 22.2145 35.3867C22.2145 37.0967 22.1991 38.7567 22.0528 40.0467C22.4147 40.0467 22.7843 40.0467 23.1462 40.0467C23.408 38.2567 23.7622 36.7667 24.2704 35.7667C24.7632 34.7867 25.4716 34.5867 25.8951 35.7667C26.3032 37.0067 26.5727 38.3967 26.6728 40.0467C27.0732 40.0467 27.3889 40.0267 27.7893 40.0267C27.7662 35.8467 27.8201 31.6867 27.797 27.5067C27.797 27.1867 27.797 26.8567 27.797 26.5367C31.0618 25.6167 34.3189 23.3367 37.5837 17.5067C40.194 12.4067 41.5492 4.77667 38.5231 2.87667Z" fill="url(#paint1_linear_204_2166)"/>
<path fill-rule="evenodd" clip-rule="evenodd" d="M37.9995 16.6566C38.3152 15.9666 38.6078 15.2466 38.8696 14.5166C37.0447 16.2966 34.4036 17.1466 31.7009 16.9866C28.3822 16.7866 24.9788 15.0766 22.8844 12.0266C22.1991 11.0266 21.5292 11.6966 22.1067 12.7166C25.333 17.7266 32.2014 19.9666 37.9995 16.6566Z" fill="#010101"/>
<path fill-rule="evenodd" clip-rule="evenodd" d="M19.1653 38.9067C20.3357 37.1267 21.3752 35.8767 22.2145 35.3867C22.2453 34.7267 22.1375 34.2467 21.9527 33.8467C21.868 33.6167 21.6678 33.7667 21.5831 34.0067L19.1653 38.9067Z" fill="url(#paint2_linear_204_2166)"/>
<path fill-rule="evenodd" clip-rule="evenodd" d="M23.2463 39.3967C23.4927 37.8967 23.8238 36.6467 24.2704 35.7667C24.7632 34.7867 25.4716 34.5867 25.8951 35.7667C26.3032 37.0067 26.5727 38.3967 26.6728 40.0467C26.873 40.0467 27.0501 40.0367 27.2349 40.0367C27.104 36.2067 26.5265 33.7067 25.3792 33.6167C24.5553 33.6867 23.5697 36.3767 23.2463 39.3967Z" fill="url(#paint3_linear_204_2166)"/>
<path fill-rule="evenodd" clip-rule="evenodd" d="M22.8306 8.41659C23.4466 8.41659 23.9471 7.81659 23.9471 7.08659C23.9471 6.35659 23.4466 5.75659 22.8306 5.75659C22.2146 5.75659 21.7141 6.35659 21.7141 7.08659C21.7141 7.81659 22.2223 8.41659 22.8306 8.41659Z" fill="#010101"/>
<path fill-rule="evenodd" clip-rule="evenodd" d="M35.1737 2.03664C36.9755 1.90664 38.4539 2.67664 38.477 3.48664C38.5617 4.87664 37.0525 5.27664 35.2507 5.41664C33.4489 5.54664 31.9705 4.89664 31.9474 3.96664C31.932 3.03664 33.3719 2.16664 35.1737 2.03664Z" fill="url(#paint4_linear_204_2166)"/>
<path fill-rule="evenodd" clip-rule="evenodd" d="M23.1462 27.8366C23.2078 27.4966 23.2771 27.1566 23.3387 26.8166C25.0943 27.0566 26.6497 27.0366 27.8047 26.5366C27.8047 26.8566 27.8047 27.1866 27.8047 27.5066C26.7883 28.3666 25.0404 28.2066 23.1462 27.8366Z" fill="#952A22"/>
<path fill-rule="evenodd" clip-rule="evenodd" d="M9.50176 13.5266C9.44016 12.6366 9.25536 11.8066 8.99356 11.0066C8.09266 10.3866 7.19176 9.76665 6.29086 9.14665C5.30526 8.52665 4.27346 9.43665 4.15026 10.7866C3.54966 15.4266 2.24066 16.6266 1.42446 19.7866C1.00866 21.4166 1.24736 22.4766 1.82486 23.0166C2.45626 23.5766 2.77966 23.8166 4.36586 23.0166C7.42276 21.3766 8.78566 19.1466 7.94636 13.7066C8.27746 13.9566 8.60856 14.2166 8.93196 14.4666C9.32466 14.7366 9.55566 14.5566 9.50176 13.5266Z" fill="url(#paint5_linear_204_2166)"/>
<path fill-rule="evenodd" clip-rule="evenodd" d="M2.57959 23.4966C2.95689 23.5866 3.44969 23.4666 4.35829 23.0166C7.41519 21.3766 8.77809 19.1466 7.93879 13.7066C7.16879 12.9066 6.39879 12.1066 5.62879 11.3066C5.01279 16.0866 4.12729 20.3866 2.57959 23.4966Z" fill="url(#paint6_linear_204_2166)"/>
</g>
<defs>
<linearGradient id="paint0_linear_204_2166" x1="18.6466" y1="32.9718" x2="20.348" y2="33.1188" gradientUnits="userSpaceOnUse">
<stop stop-color="#D9D8D8"/>
<stop offset="1" stop-color="#BEBDC0"/>
</linearGradient>
<linearGradient id="paint1_linear_204_2166" x1="26.7523" y1="2.87757" x2="15.0349" y2="27.0041" gradientUnits="userSpaceOnUse">
<stop stop-color="white"/>
<stop offset="1" stop-color="#CECCCE"/>
</linearGradient>
<linearGradient id="paint2_linear_204_2166" x1="21.6594" y1="35.0844" x2="18.9418" y2="37.8305" gradientUnits="userSpaceOnUse">
<stop stop-color="#A8A7AB"/>
<stop offset="1" stop-color="white"/>
</linearGradient>
<linearGradient id="paint3_linear_204_2166" x1="26.0555" y1="31.9432" x2="23.9639" y2="43.7531" gradientUnits="userSpaceOnUse">
<stop stop-color="#929497"/>
<stop offset="1" stop-color="white"/>
</linearGradient>
<linearGradient id="paint4_linear_204_2166" x1="35.1587" y1="4.37714" x2="36.3286" y2="-2.54774" gradientUnits="userSpaceOnUse">
<stop stop-color="#231F20"/>
<stop offset="1" stop-color="white"/>
</linearGradient>
<linearGradient id="paint5_linear_204_2166" x1="6.55058" y1="13.5647" x2="-0.00698453" y2="22.5715" gradientUnits="userSpaceOnUse">
<stop stop-color="#EFEFF1"/>
<stop offset="1" stop-color="#D8D8D9"/>
</linearGradient>
<linearGradient id="paint6_linear_204_2166" x1="7.48018" y1="13.3737" x2="2.40758" y2="21.0226" gradientUnits="userSpaceOnUse">
<stop stop-color="#A8A7AB"/>
<stop offset="1" stop-color="#D4D3D2"/>
</linearGradient>
<clipPath id="clip0_204_2166">
<rect width="154" height="40" fill="white" transform="translate(0 0.0866699)"/>
</clipPath>
</defs>
</svg>
