<svg width="44" height="45" viewBox="0 0 44 45" fill="none" xmlns="http://www.w3.org/2000/svg">
<path d="M0 22.0867C0 34.2369 9.84974 44.0867 22 44.0867C34.1503 44.0867 44 34.2369 44 22.0867C44 9.93641 34.1503 0.0866699 22 0.0866699C9.84974 0.0866699 0 9.93641 0 22.0867Z" fill="#0088CC"/>
<path d="M11.1374 21.6856C17.043 19.1126 20.9809 17.4164 22.9513 16.5968C28.5771 14.2568 29.7461 13.8504 30.508 13.8368C30.6756 13.834 31.0503 13.8755 31.293 14.0725C31.498 14.2388 31.5544 14.4634 31.5813 14.6211C31.6083 14.7787 31.6419 15.1379 31.6152 15.4186C31.3104 18.6218 29.9912 26.3952 29.3201 29.9829C29.0361 31.501 28.477 32.01 27.9357 32.0598C26.7593 32.1681 25.8659 31.2824 24.7265 30.5355C22.9436 29.3667 21.9363 28.6392 20.2057 27.4987C18.2056 26.1807 19.5022 25.4562 20.642 24.2724C20.9403 23.9625 26.1236 19.2479 26.2239 18.8202C26.2365 18.7667 26.2481 18.5674 26.1296 18.4621C26.0112 18.3568 25.8364 18.3928 25.7102 18.4214C25.5314 18.462 22.6831 20.3446 17.1653 24.0693C16.3569 24.6244 15.6246 24.8949 14.9685 24.8808C14.2452 24.8651 12.8538 24.4718 11.8195 24.1356C10.5508 23.7232 9.54253 23.5052 9.63033 22.8048C9.67606 22.44 10.1784 22.0669 11.1374 21.6856Z" fill="white"/>
</svg>
