<svg width="44" height="45" viewBox="0 0 44 45" fill="none" xmlns="http://www.w3.org/2000/svg">
<path d="M0 22.4447C0 34.6426 9.84974 44.5308 22 44.5308C34.1503 44.5308 44 34.6426 44 22.4447C44 10.2469 34.1503 0.358643 22 0.358643C9.84974 0.358643 0 10.2469 0 22.4447Z" fill="#1DA1F2"/>
<path d="M33 15.5427C32.175 15.9569 31.35 16.0949 30.3875 16.2329C31.35 15.6808 32.0375 14.8525 32.3125 13.7482C31.4875 14.3004 30.525 14.5765 29.425 14.8525C28.6 14.0243 27.3625 13.4722 26.125 13.4722C23.2375 13.4722 21.0375 16.2329 21.725 18.9937C18.0125 18.8557 14.7125 17.0612 12.375 14.3004C11.1375 16.371 11.825 18.9937 13.75 20.3741C13.0625 20.3741 12.375 20.098 11.6875 19.8219C11.6875 21.8925 13.2 23.825 15.2625 24.3772C14.575 24.5152 13.8875 24.6533 13.2 24.5152C13.75 26.3097 15.4 27.6901 17.4625 27.6901C15.8125 28.9324 13.3375 29.6226 11 29.3466C13.0625 30.5889 15.4 31.4171 17.875 31.4171C26.2625 31.4171 30.9375 24.3772 30.6625 17.8894C31.625 17.3372 32.45 16.509 33 15.5427Z" fill="white"/>
</svg>
