<svg width="153" height="39" viewBox="0 0 153 39" fill="none" xmlns="http://www.w3.org/2000/svg">
<g clip-path="url(#clip0_204_2165)">
<path d="M47.7719 6.02106C47.2097 3.68404 45.5588 1.84749 43.4582 1.22191C39.6547 0.0869144 24.3959 0.0869141 24.3959 0.0869141C24.3959 0.0869141 9.13728 0.0869144 5.33365 1.22191C3.23304 1.84749 1.58226 3.68404 1.01995 6.02106C-0.000243835 10.2527 -0.000244141 19.0869 -0.000244141 19.0869C-0.000244141 19.0869 -0.000243835 27.9211 1.01995 32.1528C1.58226 34.4898 3.23304 36.3263 5.33365 36.9518C9.13728 38.0868 24.3959 38.0868 24.3959 38.0868C24.3959 38.0868 39.6547 38.0868 43.4582 36.9518C45.5588 36.3263 47.2097 34.4898 47.7719 32.1528C48.7922 27.9211 48.7922 19.0869 48.7922 19.0869C48.7922 19.0869 48.7881 10.2527 47.7719 6.02106Z" fill="#FF0000"/>
<path d="M19.5122 27.2289L32.1883 19.0874L19.5122 10.9458V27.2289Z" fill="white"/>
<path d="M59.0943 24.7935L53.6158 2.78174H58.3955L60.3154 12.7598C60.8054 15.2175 61.1628 17.3132 61.3958 19.047H61.5363C61.697 17.8047 62.0586 15.7224 62.6169 12.7956L64.6049 2.78174H69.3846L63.8378 24.7935V35.3525H59.0904V24.7935H59.0943Z" fill="#282828"/>
<path d="M70.8225 34.6548C69.8586 33.9309 69.1717 32.8048 68.762 31.2766C68.3564 29.7484 68.1516 27.7198 68.1516 25.1816V21.7274C68.1516 19.167 68.3846 17.1071 68.8504 15.5565C69.3163 14.006 70.0434 12.871 71.0313 12.1605C72.0195 11.45 73.3167 11.0925 74.9234 11.0925C76.5059 11.0925 77.771 11.4545 78.7269 12.1784C79.6788 12.9023 80.3777 14.0373 80.8195 15.5744C81.2613 17.116 81.4823 19.167 81.4823 21.7274V25.1816C81.4823 27.7198 81.2654 29.7574 80.8357 31.2945C80.4059 32.8361 79.707 33.9622 78.743 34.6727C77.7791 35.3833 76.4697 35.7406 74.8189 35.7406C73.1159 35.745 71.7865 35.3787 70.8225 34.6548ZM76.2287 30.9281C76.4938 30.1507 76.6304 28.886 76.6304 27.1255V19.7123C76.6304 18.0053 76.4979 16.7541 76.2287 15.9676C75.9596 15.1767 75.4897 14.7835 74.8148 14.7835C74.1643 14.7835 73.7024 15.1767 73.4373 15.9676C73.1681 16.7586 73.0356 18.0053 73.0356 19.7123V27.1255C73.0356 28.886 73.164 30.155 73.4212 30.9281C73.6783 31.7056 74.1401 32.0944 74.8148 32.0944C75.4897 32.0944 75.9596 31.7056 76.2287 30.9281Z" fill="#282828"/>
<path d="M97.03 35.3571H93.2626L92.8449 32.4436H92.7405C91.7162 34.6421 90.1819 35.7413 88.1335 35.7413C86.7157 35.7413 85.6674 35.2229 84.9927 34.1909C84.3179 33.154 83.9805 31.5366 83.9805 29.3381V11.5579H88.7963V29.0251C88.7963 30.0888 88.9007 30.8438 89.1095 31.2953C89.3184 31.7465 89.6678 31.9743 90.1578 31.9743C90.5755 31.9743 90.9772 31.8314 91.3628 31.5455C91.7485 31.2594 92.0296 30.8974 92.2183 30.4596V11.5535H97.03V35.3571Z" fill="#282828"/>
<path d="M110.112 7.09301H105.332V35.3561H100.621V7.09301H95.8414V2.7854H110.112V7.09301Z" fill="#282828"/>
<path d="M121.727 35.3571H117.96L117.542 32.4436H117.438C116.414 34.6421 114.879 35.7413 112.831 35.7413C111.413 35.7413 110.365 35.2229 109.69 34.1909C109.015 33.154 108.678 31.5366 108.678 29.3381V11.5579H113.494V29.0251C113.494 30.0888 113.598 30.8438 113.807 31.2953C114.016 31.7465 114.365 31.9743 114.855 31.9743C115.273 31.9743 115.675 31.8314 116.06 31.5455C116.446 31.2594 116.727 30.8974 116.916 30.4596V11.5535H121.727V35.3571Z" fill="#282828"/>
<path d="M137.665 15.3601C137.372 13.8587 136.902 12.7729 136.251 12.0981C135.601 11.4234 134.705 11.0883 133.564 11.0883C132.681 11.0883 131.853 11.3653 131.086 11.9239C130.319 12.4824 129.724 13.2108 129.307 14.1179H129.271V1.57935H124.632V35.3521H128.608L129.098 33.1H129.202C129.576 33.9043 130.134 34.5343 130.877 35.0036C131.62 35.4683 132.448 35.7007 133.355 35.7007C134.982 35.7007 136.183 34.8651 136.95 33.1982C137.717 31.527 138.103 28.9219 138.103 25.3741V21.6071C138.103 18.9483 137.954 16.8615 137.665 15.3601ZM133.251 25.0701C133.251 26.8038 133.187 28.1623 133.058 29.1454C132.93 30.1284 132.717 30.8301 132.412 31.2411C132.11 31.6566 131.701 31.8622 131.19 31.8622C130.793 31.8622 130.427 31.7594 130.09 31.5494C129.753 31.3438 129.48 31.0311 129.271 30.6199V17.1118C129.431 16.4638 129.713 15.9366 130.11 15.521C130.504 15.1054 130.938 14.8999 131.399 14.8999C131.889 14.8999 132.267 15.1144 132.532 15.5389C132.801 15.9678 132.986 16.6828 133.09 17.6927C133.195 18.7025 133.247 20.1369 133.247 22.0002V25.0701H133.251Z" fill="#282828"/>
<path d="M144.935 26.4421C144.935 27.9702 144.975 29.1142 145.055 29.8784C145.136 30.6424 145.304 31.1966 145.561 31.5496C145.818 31.8981 146.212 32.0723 146.746 32.0723C147.465 32.0723 147.963 31.7596 148.228 31.1385C148.497 30.5174 148.642 29.4807 148.666 28.0329L152.819 28.3054C152.843 28.511 152.855 28.7969 152.855 29.1589C152.855 31.3574 152.313 33.0018 151.233 34.0877C150.152 35.1735 148.622 35.7186 146.646 35.7186C144.272 35.7186 142.609 34.8919 141.657 33.2342C140.701 31.5764 140.228 29.016 140.228 25.5483V21.3926C140.228 17.8224 140.722 15.2128 141.71 13.5684C142.698 11.924 144.389 11.1018 146.786 11.1018C148.437 11.1018 149.706 11.4369 150.59 12.1117C151.474 12.7864 152.096 13.832 152.458 15.2575C152.819 16.6829 153 18.6491 153 21.1603V25.2356H144.935V26.4421ZM145.545 15.2262C145.3 15.5613 145.14 16.111 145.055 16.8751C144.975 17.6392 144.935 18.7965 144.935 20.3516V22.0586H148.457V20.3516C148.457 18.8233 148.409 17.666 148.317 16.8751C148.224 16.0842 148.056 15.5301 147.811 15.2039C147.566 14.8822 147.188 14.7168 146.678 14.7168C146.164 14.7213 145.786 14.8911 145.545 15.2262Z" fill="#282828"/>
</g>
<defs>
<clipPath id="clip0_204_2165">
<rect width="153" height="38" fill="white" transform="translate(0 0.0866699)"/>
</clipPath>
</defs>
</svg>
